<?xml version="1.0" encoding="UTF-8"?>
<svg width="17px" height="18px" viewBox="0 0 17 18" version="1.1" xmlns="http://www.w3.org/2000/svg" xmlns:xlink="http://www.w3.org/1999/xlink">
    <!-- Generator: Sketch 43.1 (39012) - http://www.bohemiancoding.com/sketch -->
    <title>bar-graph</title>
    <desc>Created with Sketch.</desc>
    <defs>
        <polygon id="path-1" points="0.00337748344 0.0164858491 0.00337748344 17.9435094 16.9631854 17.9435094 16.9631854 0.0164858491 0.00337748344 0.0164858491"></polygon>
    </defs>
    <g id="Symbols" stroke="none" stroke-width="1" fill="none" fill-rule="evenodd">
        <g id="Aa-Announcements" transform="translate(-58.000000, -346.000000)">
            <g id="bar-graph" transform="translate(58.000000, 346.000000)">
                <g id="Group-3">
                    <mask id="mask-2" fill="white">
                        <use xlink:href="#path-1"></use>
                    </mask>
                    <g id="Clip-2" opacity="0.6"></g>
                    <path d="M16.5098709,17.9435094 L1.04578146,17.9435094 C0.469245033,17.9435094 0,17.4716604 0,16.8916415 L0,0.496245283 C0,-0.143433962 1.25512914,-0.143433962 1.25512914,0.496245283 L1.25512914,16.6814151 L16.5096457,16.6814151 C17.1143278,16.6814151 17.1143278,17.9435094 16.5098709,17.9435094 Z" id="Fill-1" fill="#4A49FB" mask="url(#mask-2)"></path>
                </g>
                <path d="M15.8209768,15.8953585 C15.9933411,15.8953585 16.1345199,15.7533962 16.1345199,15.5798491 L16.1345199,4.35481132 C16.1345199,4.18149057 15.9933411,4.03930189 15.8209768,4.03930189 L11.8522086,4.03930189 C11.6795629,4.03930189 11.5384404,4.18149057 11.5384404,4.35481132 L11.5384404,15.5798491 C11.5384404,15.7533962 11.6795629,15.8953585 11.8522086,15.8953585 L15.8209768,15.8953585 Z" id="Fill-4" fill="#4A49FB"></path>
                <path d="M10.4640629,15.8953585 C10.6366523,15.8953585 10.7778311,15.7533962 10.7778311,15.5798491 L10.7778311,1.83084906 C10.7778311,1.65730189 10.6366523,1.51533962 10.4640629,1.51533962 L7.22201656,1.51533962 C7.04937086,1.51533962 6.90824834,1.65730189 6.90824834,1.83084906 L6.90824834,15.5798491 C6.90824834,15.7533962 7.04937086,15.8953585 7.22201656,15.8953585 L10.4640629,15.8953585 Z" id="Fill-5" fill="#4A49FB"></path>
                <path d="M5.83387086,15.8953585 C6.00646026,15.8953585 6.14763907,15.7533962 6.14763907,15.5798491 L6.14763907,7.45743396 C6.14763907,7.28383019 6.00646026,7.14186792 5.83387086,7.14186792 L2.30400662,7.14186792 C2.13136093,7.14186792 1.99018212,7.28383019 1.99018212,7.45743396 L1.99018212,15.5798491 C1.99018212,15.7533962 2.13136093,15.8953585 2.30400662,15.8953585 L5.83387086,15.8953585 Z" id="Fill-6" fill="#4A49FB"></path>
            </g>
        </g>
    </g>
</svg>