<?xml version="1.0" encoding="UTF-8"?>
<svg width="25px" height="25px" viewBox="0 0 25 25" version="1.1" xmlns="http://www.w3.org/2000/svg" xmlns:xlink="http://www.w3.org/1999/xlink">
    <!-- Generator: Sketch 43.2 (39069) - http://www.bohemiancoding.com/sketch -->
    <title>error</title>
    <desc>Created with Sketch.</desc>
    <defs></defs>
    <g id="Page-1" stroke="none" stroke-width="1" fill="none" fill-rule="evenodd">
        <g id="Question-popup" transform="translate(-1017.000000, -139.000000)" fill-rule="nonzero" fill="#FFFFFF">
            <g id="Group-11" transform="translate(337.000000, 115.000000)">
                <g id="error" transform="translate(680.000000, 24.000000)">
                    <path d="M21.3432419,3.6570635 C16.4673977,-1.21878067 8.53338867,-1.21926166 3.6570635,3.6570635 C-1.21926166,8.53338867 -1.21878067,16.4669167 3.6570635,21.3432419 C8.53290767,26.219567 16.4669167,26.219567 21.3432419,21.3432419 C26.219086,16.4669167 26.219086,8.53290767 21.3432419,3.6570635 Z M17.4317923,17.4317923 C17.0561353,17.8074492 16.4471959,17.8074492 16.071539,17.4317923 L12.5001527,13.860406 L8.75897523,17.6015834 C8.3833183,17.9772403 7.77437889,17.9772403 7.39872196,17.6015834 C7.02306503,17.2259265 7.02306503,16.6169871 7.39872196,16.2413302 L11.1398994,12.5001527 L7.56851312,8.92876639 C7.19285619,8.55310946 7.19285619,7.94368906 7.56851312,7.56851312 C7.94417005,7.19285619 8.55310946,7.19285619 8.92876639,7.56851312 L12.5001527,11.1398994 L15.9012668,7.73878528 C16.2769238,7.36312835 16.8858632,7.36312835 17.2615201,7.73878528 C17.637177,8.11444221 17.637177,8.72338161 17.2615201,9.09903854 L13.860406,12.5001527 L17.4317923,16.071539 C17.8074492,16.4471959 17.8074492,17.0561353 17.4317923,17.4317923 Z" id="Shape"></path>
                </g>
            </g>
        </g>
    </g>
</svg>