<?xml version="1.0" encoding="UTF-8"?>
<svg width="15px" height="13px" viewBox="0 0 15 13" version="1.1" xmlns="http://www.w3.org/2000/svg" xmlns:xlink="http://www.w3.org/1999/xlink">
    <!-- Generator: Sketch 43.1 (39012) - http://www.bohemiancoding.com/sketch -->
    <title>Group 2Dark</title>
    <desc>Created with Sketch.</desc>
    <defs></defs>
    <g id="Symbols" stroke="none" stroke-width="1" fill="none" fill-rule="evenodd">
        <g id="A-Announcements" transform="translate(-61.000000, -200.000000)" fill="#4A4A4A">
            <g id="Group-2" transform="translate(61.000000, 200.000000)">
                <path d="M3.4532446,4.44916791 C3.39064895,4.44916791 3.33514542,4.4925862 3.31972778,4.55263277 L0.493981413,11.5944016 L0.493981413,11.8395148 C0.493981413,12.0211941 0.481647296,12.0861676 0.632431885,12.0861676 L11.673934,12.0861676 C11.9594689,12.0861676 12.2101598,11.8949424 12.2786142,11.6399754 L14.8009412,4.69582074 L14.8009412,4.44916791 L3.4532446,4.44916791 Z" id="Fill-1"></path>
                <path d="M3.14026636,3.95740192 L13.3205388,3.95740192 L13.3205388,2.41281942 C13.3205388,2.04114656 13.0183529,1.74060579 12.6474043,1.74060579 L6.54047426,1.74060579 L5.30706249,0.0155756643 L0.674676238,0.0155756643 C0.302185883,0.0155756643 0,0.317348161 0,0.689021021 L0,10.98439 L2.53681966,4.40359411 C2.6040406,4.14862714 2.85596495,3.95740192 3.14026636,3.95740192 Z" id="Fill-2"></path>
            </g>
        </g>
    </g>
</svg>