<?xml version="1.0" encoding="UTF-8"?>
<svg width="13px" height="13px" viewBox="0 0 13 13" version="1.1" xmlns="http://www.w3.org/2000/svg" xmlns:xlink="http://www.w3.org/1999/xlink">
    <!-- Generator: Sketch 43.1 (39012) - http://www.bohemiancoding.com/sketch -->
    <title>interface</title>
    <desc>Created with Sketch.</desc>
    <defs>
        <polygon id="path-1" points="0.00151287275 12.1329803 12.9098474 12.1329803 12.9098474 0 0.00151287275 0"></polygon>
    </defs>
    <g id="Symbols" stroke="none" stroke-width="1" fill="none" fill-rule="evenodd">
        <g id="Aa-Announcements" transform="translate(-59.000000, -150.000000)">
            <g id="interface" transform="translate(59.000000, 150.000000)">
                <mask id="mask-2" fill="white">
                    <use xlink:href="#path-1"></use>
                </mask>
                <g id="Clip-2"></g>
                <path d="M2.34724728,8.64015123 C2.34724728,8.33557077 2.60998285,8.08864566 2.9340654,8.08864566 L3.71647276,8.08864566 C4.04055532,8.08864566 4.30329088,8.33557077 4.30329088,8.64015123 L4.30329088,9.37547619 C4.30329088,9.68005665 4.04055532,9.92698176 3.71647276,9.92698176 L2.9340654,9.92698176 C2.60998285,9.92698176 2.34724728,9.68005665 2.34724728,9.37547619 L2.34724728,8.64015123 Z M0.586818124,12.1329803 L12.3230293,12.1329803 C12.6471119,12.1329803 12.9098474,11.8860552 12.9098474,11.5814748 L12.9098474,4.41199716 L0,4.41199716 L0,11.5814748 C0,11.8860552 0.262735567,12.1329803 0.586818124,12.1329803 L0.586818124,12.1329803 Z" id="Fill-1" fill="#4A49FB"></path>
                <path d="M1.17363625,3.30898602 L12.9098474,3.30898602 L12.9098474,1.65449301 C12.9098474,1.34991255 12.6471119,1.10298744 12.3230293,1.10298744 L8.99776023,1.10298744 L8.99776023,0.551505569 C8.99776023,0.246925108 8.73502466,0 8.41096732,0 C8.08688476,0 7.8241492,0.246925108 7.8241492,0.551505569 L7.8241492,1.10298744 L5.08569824,1.10298744 L5.08569824,0.551505569 C5.08569824,0.246925108 4.82296267,0 4.49888011,0 C4.17479756,0 3.91208721,0.246925108 3.91208721,0.551505569 L3.91208721,1.10298744 L0.586818124,1.10298744 C0.262735567,1.10298744 0,1.34991255 0,1.65449301 L0,3.30898602 L1.17363625,3.30898602" id="Fill-3" fill="#4A49FB"></path>
            </g>
        </g>
    </g>
</svg>