<?xml version="1.0" encoding="UTF-8"?>
<svg width="15px" height="14px" viewBox="0 0 15 14" version="1.1" xmlns="http://www.w3.org/2000/svg" xmlns:xlink="http://www.w3.org/1999/xlink">
    <!-- Generator: Sketch 43.1 (39012) - http://www.bohemiancoding.com/sketch -->
    <title>megaphone</title>
    <desc>Created with Sketch.</desc>
    <defs>
        <polygon id="path-1" points="0.019456312 0.0647656533 0.019456312 13.2772827 14.7874457 13.2772827 14.7874457 0.0647656533 0.019456312 0.0647656533"></polygon>
    </defs>
    <g id="Symbols" stroke="none" stroke-width="1" fill="none" fill-rule="evenodd">
        <g id="Aa-Announcements" transform="translate(-61.000000, -249.000000)">
            <g id="megaphone" transform="translate(61.000000, 249.000000)">
                <mask id="mask-2" fill="white">
                    <use xlink:href="#path-1"></use>
                </mask>
                <g id="Clip-2"></g>
                <path d="M13.4903582,0.0647656533 C12.7746902,0.0647656533 12.1932707,0.645389735 12.1932707,1.36007872 L12.1932707,1.94717937 L2.06593606,5.15372686 C2.01924091,4.62621061 1.57823118,4.21009129 1.0373457,4.21009129 C0.465005857,4.21009129 0,4.6741372 0,5.24601791 L0,8.09603049 C0,8.66758738 0.465005857,9.13195711 1.0373457,9.13195711 C1.57823118,9.13195711 2.01924091,8.71583779 2.06593606,8.18832154 L2.89834194,8.45127009 C2.78419825,8.56396233 2.69664484,8.7045038 2.64476134,8.86382731 C2.56012639,9.12677586 2.58282542,9.40785879 2.70831863,9.6542921 C2.83478466,9.90234456 3.04880409,10.084336 3.31243712,10.169179 L7.0136762,11.3670198 C7.11614611,11.4000503 7.22380437,11.4178608 7.33146263,11.4178608 C7.78511898,11.4178608 8.1813792,11.1293299 8.3208161,10.7005812 C8.35745882,10.5891843 8.35389183,10.365419 8.33605688,10.173065 L12.1932707,11.3935737 L12.1932707,11.9819697 C12.1932707,12.6953634 12.7746902,13.2772827 13.4903582,13.2772827 C14.2047291,13.2772827 14.7874457,12.6953634 14.7874457,11.9819697 L14.7874457,1.36007872 C14.7874457,0.645389735 14.2047291,0.0647656533 13.4903582,0.0647656533 Z M7.82695005,10.5412577 C7.74199082,10.802911 7.44041798,10.9599677 7.17451505,10.8738294 L3.47197888,9.67728391 C3.3403245,9.63421475 3.23396333,9.54321901 3.17040604,9.41919278 C3.10717303,9.29516656 3.09582351,9.15462509 3.13765458,9.02444613 C3.20218468,8.8259394 3.38831674,8.68798856 3.596175,8.67147332 L7.54191508,9.92145042 C7.62428013,9.97455826 7.75334033,10.065554 7.7951714,10.1465111 C7.85840442,10.2705373 7.8700782,10.4094596 7.82695005,10.5412577 Z" id="Fill-1" fill="#4A49FB"></path>
            </g>
        </g>
    </g>
</svg>