<?xml version="1.0" encoding="UTF-8"?>
<svg width="15px" height="15px" viewBox="0 0 15 15" version="1.1" xmlns="http://www.w3.org/2000/svg" xmlns:xlink="http://www.w3.org/1999/xlink">
    <!-- Generator: Sketch 43.1 (39012) - http://www.bohemiancoding.com/sketch -->
    <title>raise-your-hand-to-ask</title>
    <desc>Created with Sketch.</desc>
    <defs></defs>
    <g id="Symbols" stroke="none" stroke-width="1" fill="none" fill-rule="evenodd">
        <g id="A-CONTENT" transform="translate(-60.000000, -298.000000)" fill="#4A4A4A">
            <g id="raise-your-hand-to-ask" transform="translate(60.000000, 298.000000)">
                <path d="M8.30906122,9.40692563 C10.0221954,9.40692563 11.4153121,8.03989827 11.4153121,6.35902875 C11.4153121,4.67807747 10.0221954,3.31113187 8.30906122,3.31113187 C6.59598952,3.31113187 5.20287284,4.67807747 5.20287284,6.35902875 C5.20287284,8.03989827 6.59598952,9.40692563 8.30906122,9.40692563 Z" id="Fill-1"></path>
                <g id="Group-5">
                    <path d="M5.66782832,10.0118817 C4.47128817,10.0118817 3.50146616,10.9634846 3.50146616,12.1375466 L3.50146616,14.5117508 C3.50146616,14.7373778 3.6880441,14.9205325 3.91807427,14.9205325 L12.7001107,14.9205325 C12.9301408,14.9205325 13.1167188,14.7373778 13.1167188,14.5117508 L13.1167188,12.1963703 C13.153422,12.1342559 13.1867089,12.0671953 13.2133927,11.9969461 L14.9131954,7.58210363 C14.9698125,7.43494221 14.9998499,7.27799047 14.9998499,7.11934229 L14.9998499,2.16494882 C14.9998499,1.442141 14.4032463,0.856847346 13.666704,0.856847346 C12.9301408,0.856847346 12.333558,1.442141 12.333558,2.16494882 L12.333558,6.88061377 L11.1287274,10.0118817 L5.66782832,10.0118817 Z" id="Fill-2"></path>
                    <path d="M0.413525207,2.91870142 L1.39669951,2.91870142 C1.60337879,2.91870142 1.77831254,2.77156044 1.80832915,2.57205453 C1.86496702,2.20909725 1.97995086,1.94091601 2.14992697,1.77899757 C2.30825888,1.6285659 2.52658236,1.55504651 2.8198328,1.55504651 C3.123186,1.55504651 3.35475761,1.63680285 3.53139945,1.80677429 C3.70806212,1.97682748 3.78975897,2.18121834 3.78975897,2.45269027 C3.78975897,2.58027104 3.75972152,2.6979593 3.69804269,2.81243862 C3.66640131,2.86960674 3.54312697,3.04622088 3.07313053,3.43703663 C2.63658773,3.80007567 2.34162919,4.1417763 2.16994499,4.48022712 C1.99499041,4.8253002 1.9099607,5.32724327 1.9099607,6.01076717 C1.9099607,6.23639423 2.09662196,6.41954888 2.3265688,6.41954888 L3.21479812,6.41954888 C3.44474496,6.41954888 3.63140623,6.23639423 3.63140623,6.01076717 C3.63140623,5.4826212 3.69641792,5.26672314 3.73474587,5.18496679 C3.76476248,5.11958216 3.88974491,4.92661675 4.38463368,4.52437555 C4.8446107,4.1499315 5.1545463,3.80821043 5.33120896,3.48118506 C5.51280844,3.14602493 5.60444139,2.77812139 5.60444139,2.38889988 C5.60444139,1.69397097 5.3361666,1.11352138 4.80457466,0.662185495 C4.29131347,0.227303071 3.62140763,0.00654050739 2.81316707,0.00654050739 C2.04333778,0.00654050739 1.39172104,0.232167573 0.880167948,0.675286949 C0.363553065,1.12335258 0.0685945248,1.7299642 0.0019580581,2.47719673 C-0.0213928263,2.71263456 0.170226073,2.91870142 0.413525207,2.91870142 Z" id="Fill-4"></path>
                </g>
                <path d="M3.21146525,8.73155692 C3.4414121,8.73155692 3.62807336,8.54848403 3.62807336,8.32277521 L3.62807336,7.45290817 C3.62807336,7.2272811 3.4414121,7.04412646 3.21146525,7.04412646 L2.32494403,7.04412646 C2.09499719,7.04412646 1.90833593,7.2272811 1.90833593,7.45290817 L1.90833593,8.32277521 C1.90833593,8.54848403 2.09499719,8.73155692 2.32494403,8.73155692 L3.21146525,8.73155692 Z" id="Fill-6"></path>
            </g>
        </g>
    </g>
</svg>