<svg xmlns="http://www.w3.org/2000/svg" viewBox="0 0 970.24 184.42"><defs><style>.cls-1{fill:#4c51f7;}</style></defs><title>Asset 1</title><g id="Layer_2" data-name="Layer 2"><g id="Laag_1" data-name="Laag 1"><path class="cls-1" d="M155.73,41,122.94,143.44H94.26L77.86,88.73,61.47,143.44H32.79L0,41H32.79L47.54,95.9,63.52,41H92.21l16,54.92L122.94,41Z"/><path class="cls-1" d="M158.25,92.21c0-30.53,24.18-54.1,54.3-54.1s54.3,23.56,54.3,54.1-24.18,54.1-54.3,54.1S158.25,122.74,158.25,92.21Zm77.86,0c0-14.55-10.25-24.18-23.56-24.18S189,77.66,189,92.21s10.25,24.18,23.56,24.18S236.11,106.76,236.11,92.21Z"/><path class="cls-1" d="M345,38.93V73.77c-12.7-2-30.74,3.07-30.74,23.36v46.31H283.55V41h30.74V59.22C318.38,45.49,332.11,38.93,345,38.93Z"/><path class="cls-1" d="M421.55,143.44,388.77,98.15v45.29H358V0h30.74V85.86L419.5,41h35.86L418.07,92.21l38.32,51.23Z"/><path class="cls-1" d="M456.63,92.21c0-30.53,23.16-54.1,54.3-54.1,19.88,0,37.5,10.45,46.31,26.23L530.4,79.91c-3.48-7.17-10.86-11.47-19.88-11.47-13.32,0-23.15,9.63-23.15,23.77S497.2,116,510.52,116c9,0,16.6-4.3,19.88-11.47l26.84,15.37c-8.81,16-26.23,26.43-46.31,26.43C479.78,146.3,456.63,122.74,456.63,92.21Z"/><path class="cls-1" d="M668.73,80.53v62.91H638V85c0-12.7-8-18.65-17.83-18.65-11.27,0-19.06,6.56-19.06,21.11v55.94H570.37V0h30.74V50.61c5.53-7.58,15.78-12.5,29.3-12.5C651.1,38.11,668.73,52.87,668.73,80.53Z"/><path class="cls-1" d="M684.38,92.21c0-30.53,24.18-54.1,54.3-54.1S793,61.68,793,92.21s-24.18,54.1-54.3,54.1S684.38,122.74,684.38,92.21Zm77.86,0C762.24,77.66,752,68,738.68,68s-23.56,9.63-23.56,24.18,10.25,24.18,23.56,24.18S762.24,106.76,762.24,92.21Z"/><path class="cls-1" d="M919.92,92.21c0,30.53-22.13,54.1-49,54.1-13.73,0-23.77-4.71-30.53-12.5v50.61H809.68V41h30.74v9.63c6.76-7.79,16.8-12.5,30.53-12.5C897.79,38.11,919.92,61.68,919.92,92.21Zm-30.74,0c0-15.37-10.24-25-24.38-25s-24.38,9.63-24.38,25,10.24,25,24.38,25S889.18,107.58,889.18,92.21Z"/><path class="cls-1" d="M931.31,126.84a19.47,19.47,0,1,1,19.47,19.47A19.59,19.59,0,0,1,931.31,126.84Z"/></g></g></svg>